<?xml version="1.0" encoding="utf-8"?>
<!-- Generator: Adobe Illustrator 18.1.1, SVG Export Plug-In . SVG Version: 6.00 Build 0)  -->
<svg xmlns="http://www.w3.org/2000/svg" xmlns:xlink="http://www.w3.org/1999/xlink" version="1.1" x="0px" y="0px" width="503.5px" height="286.7px" viewBox="0 0 503.5 286.7" xml:space="preserve">
<g id="Layer_1">
</g>
<g id="Layer_3">
</g>
<g id="Layer_2">
	<g>
		<g>
			<defs>
				<circle id="SVGID_20_" cx="395.8" cy="107.7" r="107.7"/>
			</defs>
			<radialGradient id="SVGID_2_" cx="395.7755" cy="107.7037" r="107.7034" gradientUnits="userSpaceOnUse">
				<stop offset="0.4085" style="stop-color:#29323A"/>
				<stop offset="0.4456" style="stop-color:#29323A"/>
				<stop offset="1" style="stop-color:#29323A"/>
			</radialGradient>
			<use xlink:href="#SVGID_20_" opacity="0.29" fill="url(#SVGID_2_)"/>
			<clipPath id="SVGID_3_">
				<use xlink:href="#SVGID_20_" opacity="0.29"/>
			</clipPath>
			<g clip-path="url(#SVGID_3_)">
				<path fill="#15B0BF" d="M465.6,164.4c3.3,1.3,5.5,4.6,5.5,8.2V240H327.9v-67.4c0-3.6,2.2-6.8,5.5-8.2l47.4-19l0.9-0.3h35.6      l0.9,0.3L465.6,164.4z"/>
				<path fill="#138491" d="M465.6,164.4c3.3,1.3,5.5,4.6,5.5,8.2V240h-8.4L413.7,180l-28.7-35l-4.2-5.2v-11.5h37.4v17.1      L465.6,164.4z"/>
				<path fill="#F3EFDA" d="M418.2,128.3v39.8c0,4.6-1.7,8.7-4.5,11.9c-3.3,3.8-8.2,6.2-13.7,6.2H399c-10,0-18.2-8.1-18.2-18.2      v-39.8H418.2z"/>
				<path fill="#C0BEAE" d="M420.7,120v45.1c0,5.2-1.9,9.9-5.1,13.6C378.3,133,378.3,133,378.3,133V120H420.7z"/>
				<polygon fill="#F2EFDC" points="394,133.9 395.7,130.8 401.8,130.8 403.6,133.9 407.4,133.9 406,126.8 406,126.7 406,126.7       405.9,126.7 405.9,126.7 391.6,126.7 391.6,126.7 390.2,133.9     "/>
				<path fill="#F3EFDA" d="M442,96.4c0,5.9-2.5,10.6-5.6,10.6c-0.4,0-0.9-0.1-1.3-0.3c-4.7,22.1-19.4,38.2-37,38.2      c-0.3,0-0.6,0-0.8,0c-17.1-0.5-31.4-16.4-36-38c-0.1,0-0.2,0-0.3,0c-3.1,0-5.6-4.8-5.6-10.6c0-5.2,2-9.6,4.6-10.5      c2.1-26.1,18-46.5,37.4-47c0.3,0,0.6,0,0.8,0c19.7,0,36,20.5,38.2,46.9c0,0,0,0,0,0C439.5,85.7,442,90.5,442,96.4z"/>
				<path fill="#DCDAC8" d="M442,96.4c0,5.9-2.5,10.6-5.6,10.6c-0.4,0-0.9-0.1-1.3-0.3c-4.7,22.1-19.4,38.2-37,38.2      c-0.3,0-0.6,0-0.8,0V38.8c0.3,0,0.6,0,0.8,0c19.7,0,36,20.5,38.2,46.9c0,0,0,0,0,0C439.5,85.7,442,90.5,442,96.4z"/>
				<path fill="#FBBF0C" d="M367.8,86L367.8,86l0.2,0C367.9,86,367.9,86,367.8,86z"/>
				<path fill="#0E303F" d="M441.9,54.5c-5.5-14.8-16.1-12.3-19.3-11.2c-0.5,0.2-1-0.1-1.1-0.6c-0.7-3.5-3.9-14.9-15.3-18.6      c-13.6-4.4-24.5,5.2-30.5,9.3c-6,4.1-17.3,3.8-21.1,17.6c-3.2,11.7,1.3,27,5.6,35.6c0.3,0.5,0.8,0.8,1.4,0.8l2.9,0      c0.6,0,1.1,0.4,1.3,0.9l4,11.2c0.1,0.2,0.4,0.2,0.4-0.1l0.5-8.6c0.1-3.2,0.3-5.9,0.6-9.2c0.1-0.6,0-1.3-0.2-1.9      c-2.2-6.3-8.3-22.2,2-27.1c9.5-4.5,13.8,3.2,20,6.2c0.6,0.3,1.3,0.2,1.9,0c0.8-0.2,1.5-0.4,2.2-0.6c0.6-0.2,1.2-0.5,1.7-0.9      c0.8-0.5,1.5-1.1,2.2-1.5c1.4-0.8,2.8-1.6,4.1-2.5c1-0.8,1.9-1.7,2.8-2.6c0.7-0.7,1.6-0.9,2.4-0.8c0.6,0.1,1.2,0.1,1.6-0.3      c0.9-0.9,2-1.5,3.4-1.2c5.6,1,17.9,13.9,12.4,38.7c0,0,0.3,6.9,0.4,9.4c0,0.3,0.4,0.4,0.6,0.1l7.1-10.1      C436,86.5,448.4,72,441.9,54.5z"/>
				<path fill="#0E303F" d="M418.8,47.7c-0.3-1.1-0.6-2.2-0.9-3.1c-2.3-6.5-23.3-13.3-41.3-1.6c-20.7,13.4-10.4,40.9-10.4,40.9      l4.7,3.2c-0.2-12.6,6.4-19.1,6.4-19.1c1.8,8.6,8.3,12.2,10.6,13.2c0.2,0.1,0.4,0.1,0.6,0c0.2-0.1,0.3-0.3,0.4-0.5      c2.3-10.5,12.8-21.5,22.8-25.8c2.4,4,1.6,7.5,0.8,9.3c-0.1,0.2,0,0.5,0.1,0.7c0.2,0.2,13.4,1.1,15.4,22.1c0,0,7-8.2,6.9-19      C434.7,59.3,423.4,50.8,418.8,47.7z"/>
				<g>
					<path fill="#0E303F" d="M405.2,146.9c0,1.3-1.2,2.4-2.7,2.4h-8.3c-1.5,0-2.7-1.1-2.7-2.4v-9.2c0-1.3,1.2-2.4,2.7-2.4h8.3       c1.5,0,2.7,1.1,2.7,2.4V146.9z"/>
					<path fill="#0E303F" d="M412.4,151.4c2.8,0,2.2-0.3,16.7-28.7h-8.6l-6,7.6c-1.9-2.7-6.3-5.1-10-5.1h-11.3       c-3.7,0-8.2,2.4-10,5.1l-6-7.6h-8.6c14.5,28.4,13.9,28.7,16.7,28.7H412.4z M404.5,130.4c1.7,0,3.2,0.9,3.9,2.2l1.2,2.3       l-7.2,11.2l0,0h-7.1l0,0l-7.2-11.2l1.2-2.3c0.7-1.3,2.2-2.2,3.9-2.2H404.5z"/>
				</g>
			</g>
		</g>
		<g>
			<defs>
				<circle id="SVGID_23_" cx="107.7" cy="107.7" r="107.7"/>
			</defs>
			<radialGradient id="SVGID_5_" cx="107.7036" cy="107.7037" r="107.7036" gradientUnits="userSpaceOnUse">
				<stop offset="0.4085" style="stop-color:#29323A"/>
				<stop offset="0.4456" style="stop-color:#29323A"/>
				<stop offset="1" style="stop-color:#29323A"/>
			</radialGradient>
			<use xlink:href="#SVGID_23_" opacity="0.29" fill="url(#SVGID_5_)"/>
			<clipPath id="SVGID_6_">
				<use xlink:href="#SVGID_23_" opacity="0.29"/>
			</clipPath>
			<path clip-path="url(#SVGID_6_)" fill="#0E303F" d="M173.1,225H40.3c-9-32.7,11.8-75.1,11.8-75.1c6.5,0.5,14.3-0.5,21.4-1.9     c1.3-0.3,2.6-0.6,3.9-0.8c5.7-1.3,10.6-2.8,13.4-3.7l16.6,34l16.5-33.6c3.9,1.2,10.5,3.1,17.6,4.5c6.6,1.3,13.7,2.1,19.8,1.6     C161.3,149.9,182,192.3,173.1,225z"/>
			<path clip-path="url(#SVGID_6_)" fill="#CA6036" d="M126,163.8l11.9,14.5l-30.5,42.5l-30.5-42.5l11.9-14.5l-21.6-4.1l6.3-11.8     l1-1.8c7.5-1.7,13.6-3.7,15.4-4.4l0.4,0.6l0.5,1.1l16.6,34l16.5-33.6l0.7-1.5l0.4-0.6c1.8,0.6,7.9,2.6,15.4,4.4l1.1,2.1l6.1,11.5     L126,163.8z"/>
			<path clip-path="url(#SVGID_6_)" fill="#F2EFDC" d="M124,143.8l-10.4,39.3l-6.8,25.8l-15.8-65.5c0.9-0.3,1.6-0.5,2-0.7     c0.3-0.1,0.5-0.2,0.5-0.2v-15.7h26.8v15.7C120.2,142.5,121.6,143,124,143.8z"/>
			<path clip-path="url(#SVGID_6_)" fill="#C0BEAE" d="M124,143.8l-5.2,19.4l-25.4-29.8l16.4-6.6h10.4v15.7     C120.2,142.5,121.6,143,124,143.8z"/>
			<g clip-path="url(#SVGID_6_)">
				<path fill="#F2EFDC" d="M134.8,98c0,20.7-12.4,37.6-28.1,38.6c-0.5,0-1,0-1.5,0c-16.3,0-29.5-17.3-29.5-38.7      c0-21.3,13.2-38.7,29.5-38.7c0.5,0,1,0,1.5,0C122.3,60.4,134.8,77.3,134.8,98z"/>
				<path fill="#DCDAC8" d="M134.8,98c0,20.7-12.4,37.6-28.1,38.6V59.4C122.3,60.4,134.8,77.3,134.8,98z"/>
				<path fill="#2C5871" d="M161.8,111.3c1.4,2.1,0.9,4.9-1.1,6.4c-4,3-11.2,7.3-20.4,9.2c-2.2,0.4-4.4,0.8-6.8,0.9      c-2.9,0.2-5.9,0-9.1-0.4c0,0,2.9-3.2,5.5-8.3h0c1.7-3.3,3.4-7.4,4-11.9c0,0-0.2,0-0.6,0.1c-1,0.1-3.1,0.2-5.9,0      c-10.5-0.7-30.8-5.8-38.7-33c-1-2.2-10.2,9.7-11.2,25.4c-0.5,8.5,1.3,18.1,8.2,27.2c0,0-6.7-0.1-14.8-2.3      c-6.4-1.7-13.7-4.8-19.4-10.1c-1.5-1.4-1.9-3.6-1-5.4l27.2-57.8c1.9-4,5.5-6.9,9.8-7.9c10.7-2.4,31.4-5.3,47.6,4.3      c2.7,1.6,4.6,4.2,5.3,7.3C142.6,65.5,149.5,93.3,161.8,111.3z"/>
				<path fill="#2C5871" d="M89.9,70c0,0-0.5,18.2,4.4,30.8c0,0-12.8-8.2-11.8-25.7c1-17.5,8.7-8.9,8.7-8.9L89.9,70z"/>
			</g>
			<path clip-path="url(#SVGID_6_)" fill="#0E303F" d="M133.5,127.9c-2.9,0.2-5.9,0-9.1-0.4c0,0,2.9-3.2,5.5-8.3     c-0.3-0.1-0.4-0.1-0.4-0.1c1.9-3.8,3.1-7.9,3.8-11.7c1.5-7.9,1.1-14.5,1.1-14.5C137.3,103.8,135.6,117.6,133.5,127.9z"/>
			<path clip-path="url(#SVGID_6_)" fill="#0E303F" d="M85.6,126.9c0,0-6.7-0.1-14.8-2.3c-0.2-13.2,6.4-24.5,6.7-24.9     C76.9,108.2,78.8,117.8,85.6,126.9z"/>
		</g>
		<g>
			<defs>
				<path id="SVGID_26_" d="M373.8,161.4c0,69.2-56.1,125.3-125.3,125.3c-69.2,0-125.3-56.1-125.3-125.3      c0-69.2,56.1-125.3,125.3-125.3C317.7,36.2,373.8,92.3,373.8,161.4z"/>
			</defs>
			<radialGradient id="SVGID_8_" cx="248.5119" cy="161.4521" r="125.2723" gradientUnits="userSpaceOnUse">
				<stop offset="0.4085" style="stop-color:#29323A"/>
				<stop offset="0.4456" style="stop-color:#29323A"/>
				<stop offset="1" style="stop-color:#29323A"/>
			</radialGradient>
			<use xlink:href="#SVGID_26_" opacity="0.29" fill="url(#SVGID_8_)"/>
			<clipPath id="SVGID_9_">
				<use xlink:href="#SVGID_26_" opacity="0.29"/>
			</clipPath>
			<g clip-path="url(#SVGID_9_)">
				<path fill="#2C5871" d="M352.5,330H146.3l10-112.9l33.2-12.7l18-6.9c0,0,0,0,0,0l9.9-3.8l6.4-2.4h51l10.1,3.9c0,0,0,0,0,0      l26.6,10.2l30.8,11.8L352.5,330z"/>
				<polygon fill="#F3EFDA" points="287.4,196 250.3,312.3 217.5,193.6 223.9,191.2 274.9,191.2     "/>
				<path fill="#F3EFDA" d="M280.7,151.6V196c-3.5,29.1-57.4,29.1-60.8,0v-43.5c0-0.5,0.4-0.8,0.8-0.8H280.7z"/>
				<path fill="#C0BEAE" d="M280.7,170.6v32c-0.9,4.3,5.8,20.8,0,22.9l-43-25.7l-17.9-24.3v-4.9H280.7z"/>
				<path fill="#F3EFDA" d="M294.4,146.9c0,7-3.2,12.8-7.1,12.8v9.1L263,191.4h-25.5l-24.3-22.6v-9.1c-3.9,0-7.1-5.7-7.1-12.8      c0-7.1,3.2-12.8,7.1-12.8v-23.7h74v23.7C291.2,134.1,294.4,139.8,294.4,146.9z"/>
				<path fill="#DCDAC8" d="M294.4,146.9c0,7-3.2,12.8-7.1,12.8v9.1L263,191.4h-13.3v-81h37.6v23.7      C291.2,134.1,294.4,139.8,294.4,146.9z"/>
				<polygon fill="#CA6036" points="255.4,208.6 244.4,208.6 237.9,220.6 244.5,226.9 244.5,228.9 228.6,278.5 248.7,312.3       251,312.3 271.2,278.5 255.3,228.9 255.3,226.9 261.8,220.6     "/>
				<path fill="#0B2D38" d="M283.8,232.2l21.4,25.2L251.1,330l-0.8,1.1l-0.8-1.1l-54.1-72.5l21.4-25.2l-38.9-7.1l11.3-20.4l0.2-0.4      l18-6.9c0,0,0,0,0,0c5.5-1.5,9.5-2.8,11.3-3.4l0.6,1l0.9,1.8l29.9,110.7l29.6-110l1.3-2.5l0.7-1c0.7,0.2,1.8,0.6,3.2,1      c0,0,0,0,0,0l26.6,10.2l0,0l11,19.9L283.8,232.2z"/>
				<path fill="#0E303F" d="M291.9,96.8c-4.8-6.7-15.4-3.1-15.4-3.1c1-15-28.4-18.6-46.8-16.6c-11.8,1.3-19.7-7.9-19.7-7.9      c-6.8,9.3-5.4,25.9-0.6,29.2c-5.6,5.7-4.1,24.6,0.4,31.1l8.1,18c0.2,0.4,0.5,0.6,0.9,0.5c0.4-0.1,0.7-0.4,0.7-0.8      c0.3-9.7,1.4-26.2,4.7-31.8l-1-7.5l4.7,2c0,0,0,0,0-0.1c0.4,0.2,0.8,0.4,1.2,0.6l6,2.5c9.5,3.4,22.3,4.9,39.7-2l-3.5,6.9      c5.6,3.8,9.2,19.9,11.1,33c0.1,0.4,0.4,0.7,0.8,0.7c0.4,0,0.7-0.2,0.9-0.6c3.4-10.2,6.3-21,6.3-21      C293.4,122.3,296.7,103.6,291.9,96.8z"/>
			</g>
		</g>
	</g>
</g>
<g id="Layer_4">
</g>
<g id="Layer_6">
</g>
<g id="Social_Twitter_Bird_Symbol">
</g>
<g id="Instagram_Photo_Camera_Logo_Outline">
</g>
<g id="Facebook_Social_Logo">
</g>
<g id="Responsive_Website_Design_On_Monitor_Screen">
</g>
<g id="Website_Design_Symbol">
</g>
<g id="SEO_Monitoring">
</g>
<g id="Zoom_Or_Search_Tool">
</g>
<g id="Career">
</g>
<g id="About_Us">
</g>
<g id="Layer_15">
</g>
<g id="Layer_16">
</g>
</svg>
